<!-- icon666.com - MILLIONS vector ICONS FREE --><svg id="Layer_1" enable-background="new 0 0 74 74" viewBox="0 0 74 74" xmlns="http://www.w3.org/2000/svg"><g><g><path d="m27.05 61.38c-7.76 2.49-1.26 7.36 6.44 7.58 7.27.21 14.2-.45 12.49-5.11-1.84-5.03-14.8-3.79-18.93-2.47z" fill="#e8e8e8"></path></g><g opacity=".5"><path d="m27.43 61.42c-6.93 2.22-1.13 6.57 5.75 6.77 6.49.19 12.68-.4 11.16-4.56-1.64-4.5-13.22-3.39-16.91-2.21z" fill="#fff"></path></g><g><g><path d="m31.31 62.78c1.3-6.32 1.58-11.28 1.14-15.03h5.55c-.43 3.75-.16 8.7 1.13 15.03 0 1.55-7.82 1.55-7.82 0z" fill="#e8e8e8"></path></g></g><g><path d="m45.87 17.38c.21 0 .37.2.32.41-.95 4.15.37 7.7 1.52 11.99 1.33 4.94 2.3 10.22-.89 14.74-2.31 3.28-6.14 5.2-10.09 5.59-3.6.35-7.37-.56-10.23-2.83-2.87-2.26-4.83-5.81-5.01-9.48-.13-2.74.75-5.4 1.46-8.02 1.15-4.29 2.47-7.84 1.52-11.99-.05-.21.1-.41.32-.41z" fill="#e8e8e8"></path></g><g><g><path d="m31.21 18.67c-.21 1.76-.92 3.56-2.36 4.74-2 1.61-4.77 1.51-6.98.38-1.74-.87-3.18-2.34-3.93-4.1-.82-1.95-.55-4.16.48-6 1.15-2.05 3.06-3.49 5.54-3.57 2.31-.07 4.62.99 5.97 2.82 1.16 1.6 1.48 3.84 1.28 5.73z" fill="#f93"></path></g><g><g><path d="m24.7 16.85c.48-.92.96-1.83 1.5-2.76.53-.9 1.19-1.75 2-2.43-1.22-.85-2.72-1.31-4.22-1.27-.11 0-.21.02-.32.03z" fill="#ffcf47"></path></g><g><path d="m24 17.17c-1.37-1.64-3.33-2.54-5.13-3.7-.07.12-.15.23-.22.36-.81 1.45-1.12 3.14-.78 4.73 2.11-.44 4.24-.8 6.35-1.17-.09-.08-.16-.15-.22-.22z" fill="#ffcf47"></path></g><g><path d="m21 14.35c1.16.61 2.31 1.4 3.2 2.37-.32-2.09-.59-4.18-.73-6.28-1.93.22-3.47 1.3-4.5 2.86.68.35 1.36.68 2.03 1.05z" fill="#ffcf47"></path></g><g><path d="m26.51 14.27-1.53 3.01c1.97-.29 3.95-.56 5.93-.76-.14-1.23-.49-2.45-1.2-3.42-.4-.54-.88-.99-1.42-1.38-.72.76-1.29 1.64-1.78 2.55z" fill="#ffcf47"></path></g><g><path d="m27.09 19.93c-.73-.63-1.5-1.22-2.2-1.88.33 2.08.66 4.16.94 6.24 1.02-.1 2-.45 2.85-1.12.44-.36.78-.79 1.08-1.24-.91-.64-1.81-1.28-2.67-2z" fill="#ffcf47"></path></g><g><path d="m25.17 17.71c.7.67 1.46 1.27 2.15 1.95l2.48 2.2c.63-.97 1.01-2.1 1.14-3.24.07-.63.05-1.3-.02-1.97-1.91.41-3.83.74-5.75 1.06z" fill="#ffcf47"></path></g><g><path d="m24.45 18.2c-1.14 1.68-2.77 2.89-4.49 3.9.59.57 1.26 1.07 2 1.44 1.15.59 2.46.87 3.73.77-.47-2.03-.88-4.07-1.24-6.11z" fill="#ffcf47"></path></g><g><path d="m19.81 21.97c1.64-1.19 3.25-2.42 4.31-4.09-2.07.3-4.15.58-6.22.79.07.31.16.62.29.92.37.89.94 1.69 1.62 2.38z" fill="#ffcf47"></path></g></g><g opacity=".15"><path d="m30.34 18.34c-.18 1.59-.83 3.21-2.13 4.27-1.81 1.45-4.31 1.36-6.3.34-1.57-.79-2.87-2.11-3.55-3.7-.74-1.76-.49-3.75.43-5.42 1.03-1.85 2.76-3.15 5-3.23 2.08-.06 4.17.9 5.39 2.55 1.05 1.45 1.35 3.48 1.16 5.19z" fill="#fff"></path></g><g opacity=".15"><path d="m19.39 20.09c.47.96 1.21 1.83 2.19 2.24.63.26 1.32.32 2 .34.45.01.92-.01 1.33-.19.41-.19.75-.59.74-1.04-.01-.34-.21-.64-.34-.96-.13-.31-.18-.72.07-.96.22-.21.57-.19.84-.08.28.11.52.3.8.4.74.27 1.62-.14 2-.83s.3-1.56-.06-2.26c-.23-.44-.58-.84-.67-1.33-.14-.73.33-1.49.15-2.21-.16-.68-.83-1.1-1.46-1.4-.96-.45-1.98-.78-3.03-.85-1.05-.06-2.14.15-3.03.73-.88.57-1.52 1.46-1.9 2.43-.35.87-.7 2.09-.54 3.03.16.98.46 2.04.91 2.94z" fill="#fff"></path></g><g opacity=".15"><path d="m19.25 16.13c.01-.7.11-1.42.37-2.07.27-.65.71-1.24 1.3-1.62.53-.34 1.16-.49 1.79-.59.35-.05.71-.09 1.06-.11.16-.01.34-.01.46.1.18.17.11.48-.04.68-.42.58-1.2.75-1.83 1.09-.61.33-1.12.86-1.43 1.48-.31.63-.41 1.35-.3 2.04.06.35.18.71.14 1.06-.02.27-.19.64-.47.72-.3.09-.52-.42-.64-.65-.31-.65-.42-1.41-.41-2.13z" fill="#fff"></path></g></g><g opacity=".5"><path d="m31.26 17.38c.01.43 0 .86-.05 1.28-.22 1.77-.93 3.56-2.36 4.74-1.31 1.05-2.94 1.37-4.52 1.16.48-2.22.69-4.4.14-6.77-.05-.2.1-.41.32-.41z" fill="#e8e8e8"></path></g><g><g><path d="m37.7 29.77s.07-2.2.42-4.83c.64-4.82.89-9.16 3.29-14.11.59-1.21 1.97-3.17 3-4.07 1.78-1.55 4.57-2.05 7.03-1.62 2.23.4 4.18 2.1 5.11 4.29l-2.25 1.8c-.99-1.15-2.06-2.35-3.5-2.8-2.09-.66-4.42.49-5.75 2.23s-1.86 3.95-2.26 6.1c-.79 4.28-1.18 8.62-1.57 12.96z" fill="#9c3"></path></g><g opacity=".15"><path d="m43.66 12.28c.62-1.52 1.4-3.06 2.74-4.02 1.7-1.21 4.19-1.19 5.87.06.57.43 1.06.98 1.69 1.3.64.32 1.52.34 1.97-.21-.9-1.9-2.65-3.37-4.67-3.94-2.02-.56-4.28-.21-6.03.96-1.59 1.05-2.71 2.68-3.57 4.38-2.16 4.59-3.02 9.42-3.43 14.44-.11 1.36-.36 2.85-.26 4.21.86.11 2 .16 2.32-.82.38-1.12.26-2.54.39-3.71.3-2.76.76-5.5 1.49-8.18.4-1.52.89-3.01 1.49-4.47z" fill="#fff"></path></g><g opacity=".15"><path d="m40.69 17.04c-.02 0-.04 0-.06-.01-.17-.03-.28-.2-.25-.37.37-1.86.88-4.02 1.93-6 .77-1.46 2.18-3.43 4.47-4.48 2.09-.96 4.55-.84 6.27.3.15.1.19.29.09.44s-.29.18-.44.08c-1.55-1.02-3.77-1.12-5.66-.25-1.66.76-3.14 2.26-4.17 4.2-1.01 1.91-1.51 4.02-1.87 5.83-.03.16-.16.26-.31.26z" fill="#fff"></path></g></g><g opacity=".15"><path d="m25.82 24.24h16.76c-.18-1.31-.19-2.75-.13-5.48-5.34.8-10.77.97-16.15.51.14 1.68-.09 3.33-.48 4.97z" fill="#fff"></path></g><g opacity=".15"><path d="m29.45 24.24h11.66c-.05-1.08 0-2.17.21-3.33h-12.08c.21 1.15.26 2.25.21 3.33z" fill="#fff"></path></g><g><path d="m46.02 28.45c-.43-1.54-.85-3.05-1.12-4.58h-19.14c-.27 1.53-.69 3.03-1.12 4.58-.15.54-.31 1.1-.46 1.66l-.31 1.12c-.62 2.24-1.21 4.36-1.11 6.51.15 3.18 1.89 6.46 4.53 8.54 2.14 1.69 4.96 2.63 7.94 2.63.46 0 .92-.02 1.38-.07 3.77-.37 7.2-2.26 9.17-5.05 2.93-4.14 1.95-9.03.7-13.68-.15-.56-.3-1.11-.46-1.66z" fill="#f93"></path></g><g opacity=".15"><path d="m35.61 48.26c4.41-1.26 7.18-3.9 9.09-8.14.92-2.05.95-4.83.34-6.99-2.49-8.75-2.73-7.52-2.59-14.37-5.34.8-10.77.97-16.15.51.24 2.66-.48 5.26-1.29 7.81s-1.78 5.06-2.22 7.7c-.43 2.64-.28 5.48 1.06 7.79 1.11 1.91 2.83 3.76 4.85 4.66 2.01.91 4.79 1.64 6.91 1.03z" fill="#fff"></path></g><g opacity=".15"><path d="m41.32 20.9c-.63 3.4.13 6.26.78 9.74.73 3.88 1.27 8.03-.49 11.57-1.28 2.57-3.39 4.08-5.56 4.39-1.99.28-4.06-.44-5.64-2.22s-2.66-4.57-2.76-7.44c-.07-2.16.41-4.24.8-6.3.66-3.48 1.41-6.34.78-9.74z" fill="#fff"></path></g><g opacity=".15"><path d="m24.08 39.72c-.73-2.54.17-5.23.96-7.75.99-3.16 1.81-6.37 2.47-9.62.05-.26.26-.61.49-.48.13.07.15.23.16.38.22 4.04-1.29 7.95-2.13 11.91-.28 1.31-.49 2.68-.2 3.99.25 1.16.87 2.2 1.35 3.28.34.76 1.09 2.52.52 3.29-1.58-1.01-3.1-3.21-3.62-5z" fill="#fff"></path></g><g opacity=".5"><path d="m33.02 57.22c.16-1.3.15-2.6.14-3.91-.01-.92-.01-1.83-.02-2.75 1.39.32 2.86.31 4.24-.03-.16 3.77-.31 7.58.3 11.31.04.25.08.53-.08.72-.09.11-.23.17-.37.22-1.29.47-2.73.52-4.06.17-.34-.09-.68-.21-1-.35-.37-.16-.47-.2-.33-.59.25-.73.48-1.47.68-2.22.21-.85.39-1.7.5-2.57z" fill="#fff"></path></g><g opacity=".5"><path d="m34.04 57.06c.04-1.71-.13-3.44-.08-5.15.01-.17.02-.36.15-.46.15-.12.38-.04.51.11s.19.35.24.54c.7 2.8.59 5.77-.33 8.39-.13.37-.27.73-.53 1.01-.16.17-.66.58-.9.29-.18-.21.22-.78.31-1 .29-.75.45-1.56.54-2.38.05-.44.08-.89.09-1.35z" fill="#fff"></path></g><g opacity=".5"><path d="m29.25 62.96c-.11.61.02 1.26.37 1.77.51.75 1.42 1.15 2.31 1.31.9.16 1.82.12 2.72.19.17.01.37.04.48.18.13.17.07.43-.09.58s-.37.21-.58.25c-1.25.26-2.55.16-3.78-.14-1.24-.3-2.41-.81-3.56-1.36-.63-.31-1.31-.7-1.52-1.37-.14-.47-.01-1 .28-1.41.29-.4.7-.7 1.14-.92.47-.24.98-.41 1.51-.51.36-.06 1.27-.26 1.57-.01-.39.45-.73.83-.85 1.44z" fill="#fff"></path></g></g></svg>